:SAMPLES-PER-SECOND 30
:FULLY-SPECIFIED
:DEGREES
359
root  -72.7229 41.6843 -0.0364747 115.584 88.774 114.755
RightUpLeg  2.42305 -8.25787 -5.68052
RightLeg  4.64879 -6.47928 3.1522
RightFoot  -4.731 -0.0284221 -0.14797
RightToes  0.000482159 0.542163 -0.142577
Spine  4.47905 0.0854569 -2.34134
Spine1  0.990694 -0.350731 2.37342
HEad  -7.17124 4.76862 -1.31878
LeftShoulder1  1.26843 -3.92006 -9.69493
LeftArm  -22.5432 15.5442 -4.88043
LeftForeArm  18.5775 -6.30281 0.691281
LeftHand  -0.25398 0.0180481 5.50724
RightShoulder  0.468654 -0.708564 9.41302
RightArm  -26.4384 -5.70341 3.88505
RightForeArm  5.06865 5.02294 1.14114
RightHand  -1.12731 3.77637 -14.5277
LeftUpLeg  2.15599 3.57664 0.935163
LeftLeg  0.949347 10.4572 -3.40404
LeftFoot  -2.41103 -0.0871624 1.31777
LeftToes  1.06246e-005 4.65855e-005 -8.18503e-006
360
root  -72.7333 41.687 -0.0416189 113.79 88.816 112.962
RightUpLeg  2.46798 -8.30975 -5.70603
RightLeg  4.52918 -6.36411 3.23955
RightFoot  -4.68356 -0.0282228 -0.151065
RightToes  0.000482159 0.542163 -0.142577
Spine  4.40773 0.0653793 -2.29343
Spine1  1.06329 -0.35453 2.29245
HEad  -7.04598 4.48297 -1.15449
LeftShoulder1  1.26786 -3.90116 -9.71093
LeftArm  -22.6448 15.409 -4.95321
LeftForeArm  19.1205 -6.45008 0.693834
LeftHand  -0.25398 0.0180481 5.50724
RightShoulder  0.493228 -0.575462 9.50077
RightArm  -26.3635 -5.46263 3.96321
RightForeArm  5.86135 5.25147 1.1826
RightHand  -1.16302 4.10478 -14.4863
LeftUpLeg  2.16813 3.58778 0.953182
LeftLeg  0.903221 10.489 -3.4158
LeftFoot  -2.38935 -0.0871108 1.31697
LeftToes  1.06246e-005 4.65855e-005 -8.18503e-006
361
root  -72.746 41.6904 -0.0475488 112.884 88.8744 112.046
RightUpLeg  2.47351 -8.29386 -5.66643
RightLeg  4.45584 -6.35513 3.26407
RightFoot  -4.6282 -0.0278792 -0.1564
RightToes  0.000482159 0.542163 -0.142577
Spine  4.35832 0.022911 -2.24248
Spine1  1.14014 -0.401224 2.30106
HEad  -7.02486 4.49323 -1.12468
LeftShoulder1  1.26492 -3.83717 -9.90879
LeftArm  -22.6896 15.2499 -4.92172
LeftForeArm  19.4661 -6.55082 0.680913
LeftHand  -0.25398 0.0180481 5.50724
RightShoulder  0.518909 -0.420054 9.48401
RightArm  -26.3564 -5.22863 4.13934
RightForeArm  6.64372 5.57674 1.23766
RightHand  -1.20675 4.52396 -14.4116
LeftUpLeg  2.17415 3.60742 0.994475
LeftLeg  0.835548 10.5018 -3.42658
LeftFoot  -2.36427 -0.0854295 1.29083
LeftToes  1.06246e-005 4.65855e-005 -8.18503e-006
362
root  -72.7622 41.6931 -0.0501756 111.353 88.9379 110.499
RightUpLeg  2.41239 -8.21986 -5.57956
RightLeg  4.46433 -6.40277 3.2207
RightFoot  -4.56874 -0.0248968 -0.202713
RightToes  0.000482159 0.542163 -0.142577
Spine  4.3584 0.0215104 -2.21843
Spine1  1.16901 -0.418563 2.36998
HEad  -7.18774 4.74808 -1.34681
LeftShoulder1  1.26188 -3.76519 -10.1242
LeftArm  -22.6429 15.0199 -4.97738
LeftForeArm  19.4024 -6.60547 0.609386
LeftHand  -0.25398 0.0180481 5.50724
RightShoulder  0.529682 -0.348973 9.44229
RightArm  -26.4245 -5.00131 4.35535
RightForeArm  6.94036 5.99325 1.32001
RightHand  -1.24379 4.72985 -14.5544
LeftUpLeg  2.15488 3.61089 1.0298
LeftLeg  0.788851 10.5505 -3.41508
LeftFoot  -2.33503 -0.0843292 1.27373
LeftToes  1.06246e-005 4.65855e-005 -8.18503e-006
363
root  -72.7768 41.6941 -0.0478812 110.968 88.9635 110.085
RightUpLeg  2.36731 -8.19982 -5.54288
RightLeg  4.42778 -6.4121 3.23131
RightFoot  -4.50777 -0.0203025 -0.27406
RightToes  0.000482159 0.542163 -0.142577
Spine  4.3695 0.0421379 -2.24439
Spine1  1.16926 -0.412595 2.43537
HEad  -7.67939 5.07746 -1.76551
LeftShoulder1  1.26098 -3.69813 -10.2271
LeftArm  -22.5681 14.7477 -5.17158
LeftForeArm  19.2199 -6.60955 0.518512
LeftHand  -0.25398 0.0180481 5.50724
RightShoulder  0.526295 -0.372286 9.46109
RightArm  -26.4523 -4.79816 4.50238
RightForeArm  7.17954 6.40358 1.40363
RightHand  -1.26885 4.79447 -14.749
LeftUpLeg  2.09448 3.57111 1.02445
LeftLeg  0.795224 10.6131 -3.36135
LeftFoot  -2.30317 -0.0825939 1.24675
LeftToes  1.06246e-005 4.65855e-005 -8.18503e-006
